<svg width="30" height="31" viewBox="0 0 30 31" fill="none" xmlns="http://www.w3.org/2000/svg">
<path id="Vector / Facebook" d="M26.7857 0.5H3.21429C2.3618 0.5 1.54424 0.838647 0.941442 1.44144C0.338647 2.04424 0 2.8618 0 3.71429L0 27.2857C0 28.1382 0.338647 28.9558 0.941442 29.5586C1.54424 30.1614 2.3618 30.5 3.21429 30.5H12.4051V20.3007H8.18638V15.5H12.4051V11.8411C12.4051 7.67924 14.8828 5.38036 18.6777 5.38036C20.4951 5.38036 22.3955 5.70446 22.3955 5.70446V9.78929H20.3016C18.2384 9.78929 17.5949 11.0696 17.5949 12.3828V15.5H22.2007L21.4641 20.3007H17.5949V30.5H26.7857C27.6382 30.5 28.4558 30.1614 29.0586 29.5586C29.6614 28.9558 30 28.1382 30 27.2857V3.71429C30 2.8618 29.6614 2.04424 29.0586 1.44144C28.4558 0.838647 27.6382 0.5 26.7857 0.5Z" fill="#EA804F"/>
</svg>
