<svg width="30" height="31" viewBox="0 0 30 31" fill="none" xmlns="http://www.w3.org/2000/svg">
<path id="Vector / Instagram" d="M15 11.9281C14.2936 11.9284 13.6032 12.1381 13.0159 12.5307C12.4287 12.9234 11.9711 13.4813 11.701 14.134C11.4308 14.7867 11.3603 15.5049 11.4983 16.1977C11.6362 16.8904 11.9765 17.5268 12.4761 18.0262C12.9757 18.5256 13.6122 18.8656 14.305 19.0033C14.9978 19.1411 15.7159 19.0702 16.3685 18.7999C17.0211 18.5295 17.5789 18.0717 17.9713 17.4843C18.3638 16.8969 18.5732 16.2064 18.5732 15.5C18.5725 14.5527 18.1958 13.6444 17.5258 12.9746C16.8558 12.3049 15.9473 11.9285 15 11.9281ZM23.3511 9.18259C23.1693 8.72177 22.8947 8.30323 22.5444 7.95293C22.1941 7.60263 21.7756 7.32804 21.3147 7.1462C19.9085 6.59107 16.5603 6.71562 15 6.71562C13.4397 6.71562 10.0949 6.58638 8.6846 7.1462C8.22378 7.32804 7.80524 7.60263 7.45494 7.95293C7.10464 8.30323 6.83005 8.72177 6.64821 9.18259C6.09375 10.5888 6.21763 13.9404 6.21763 15.4993C6.21763 17.0583 6.09375 20.4058 6.65089 21.8167C6.83273 22.2776 7.10732 22.6961 7.45761 23.0464C7.80791 23.3967 8.22646 23.6713 8.68728 23.8531C10.0935 24.4083 13.4417 24.2837 15.0027 24.2837C16.5636 24.2837 19.9071 24.4129 21.3174 23.8531C21.7782 23.6713 22.1968 23.3967 22.5471 23.0464C22.8974 22.6961 23.172 22.2776 23.3538 21.8167C23.9129 20.4105 23.7844 17.0589 23.7844 15.5C23.7844 13.9411 23.9129 10.5942 23.3538 9.18326L23.3511 9.18259ZM15 20.9911C13.914 20.9911 12.8523 20.669 11.9493 20.0657C11.0463 19.4623 10.3425 18.6047 9.92691 17.6013C9.51131 16.598 9.40256 15.4939 9.61444 14.4287C9.82631 13.3636 10.3493 12.3852 11.1172 11.6172C11.8852 10.8493 12.8636 10.3263 13.9287 10.1144C14.9939 9.90256 16.098 10.0113 17.1013 10.4269C18.1047 10.8425 18.9623 11.5463 19.5657 12.4493C20.169 13.3523 20.4911 14.414 20.4911 15.5C20.492 16.2213 20.3505 16.9358 20.0749 17.6024C19.7992 18.269 19.3948 18.8747 18.8847 19.3847C18.3747 19.8948 17.769 20.2992 17.1024 20.5749C16.4358 20.8505 15.7213 20.992 15 20.9911ZM20.7174 11.0603C20.4639 11.0604 20.216 10.9853 20.0052 10.8446C19.7943 10.7038 19.6299 10.5037 19.5328 10.2695C19.4357 10.0353 19.4102 9.7776 19.4596 9.52894C19.509 9.28027 19.631 9.05183 19.8102 8.87251C19.9894 8.6932 20.2178 8.57106 20.4664 8.52155C20.7151 8.47204 20.9728 8.49739 21.2071 8.59437C21.4413 8.69136 21.6415 8.85564 21.7824 9.06643C21.9232 9.27722 21.9984 9.52505 21.9984 9.77857C21.9991 9.94693 21.9666 10.1138 21.9027 10.2695C21.8388 10.4253 21.7447 10.5669 21.626 10.6862C21.5072 10.8055 21.366 10.9002 21.2106 10.9649C21.0551 11.0295 20.8884 11.0629 20.7201 11.0629L20.7174 11.0603ZM26.7857 0.5H3.21429C2.3618 0.5 1.54424 0.838647 0.941442 1.44144C0.338647 2.04424 0 2.8618 0 3.71429L0 27.2857C0 28.1382 0.338647 28.9558 0.941442 29.5586C1.54424 30.1614 2.3618 30.5 3.21429 30.5H26.7857C27.6382 30.5 28.4558 30.1614 29.0586 29.5586C29.6614 28.9558 30 28.1382 30 27.2857V3.71429C30 2.8618 29.6614 2.04424 29.0586 1.44144C28.4558 0.838647 27.6382 0.5 26.7857 0.5ZM25.6393 19.9196C25.5529 21.6359 25.1612 23.1567 23.9083 24.4062C22.6554 25.6558 21.1359 26.0556 19.4217 26.1373C17.6531 26.2371 12.3509 26.2371 10.5824 26.1373C8.86607 26.0509 7.35067 25.6585 6.09576 24.4062C4.84085 23.154 4.44643 21.6326 4.36473 19.9196C4.26496 18.1504 4.26496 12.8475 4.36473 11.0804C4.45112 9.36406 4.83817 7.8433 6.09576 6.59375C7.35335 5.3442 8.87277 4.94911 10.5824 4.86741C12.3509 4.76763 17.6531 4.76763 19.4217 4.86741C21.1379 4.95379 22.658 5.34621 23.9083 6.59844C25.1585 7.85067 25.5576 9.3721 25.6393 11.0884C25.7391 12.8509 25.7391 18.1491 25.6393 19.9196Z" fill="#EA804F"/>
</svg>
