<svg width="30" height="31" viewBox="0 0 30 31" fill="none" xmlns="http://www.w3.org/2000/svg">
<path id="Vector / X" d="M4.28571 0.5C1.92187 0.5 0 2.42187 0 4.78571V26.2143C0 28.5781 1.92187 30.5 4.28571 30.5H25.7143C28.0781 30.5 30 28.5781 30 26.2143V4.78571C30 2.42187 28.0781 0.5 25.7143 0.5H4.28571ZM24.1808 6.125L17.2299 14.067L25.4062 24.875H19.0045L13.9955 18.3192L8.2567 24.875H5.07589L12.5089 16.3772L4.66741 6.125H11.2299L15.7634 12.1183L21 6.125H24.1808ZM21.6496 22.9732L10.2723 7.92634H8.37723L19.8817 22.9732H21.6429H21.6496Z" fill="#EA804F"/>
</svg>
